<?xml version="1.0" encoding="iso-8859-1"?>
<!-- Generator: Adobe Illustrator 19.0.0, SVG Export Plug-In . SVG Version: 6.00 Build 0)  -->
<svg xmlns="http://www.w3.org/2000/svg" xmlns:xlink="http://www.w3.org/1999/xlink" version="1.1" id="Capa_1" x="0px" y="0px" viewBox="0 0 353.321 353.321" style="enable-background:new 0 0 353.321 353.321;" xml:space="preserve" width="512px" height="512px">
<g>
	<g id="Dibujo_65_">
		<path d="M344.951,83.137L212.453,50.013c-0.155-0.039-0.32-0.028-0.475-0.061c-0.491-0.099-0.988-0.16-1.491-0.193    c-0.276-0.022-0.547-0.044-0.823-0.044c-0.563,0.011-1.121,0.077-1.678,0.166c-0.21,0.033-0.42,0.044-0.618,0.094    c-0.723,0.16-1.435,0.386-2.125,0.701c-0.039,0.022-0.077,0.028-0.116,0.044c-0.685,0.32-1.347,0.707-1.971,1.176l-48.581,36.436    V52.868c9.733-4.273,16.562-13.973,16.562-25.262c0-15.22-12.383-27.603-27.603-27.603s-27.603,12.383-27.603,27.603    c0,11.29,6.829,20.995,16.562,25.262v278.368H11.041C4.946,331.236,0,336.182,0,342.277s4.946,11.041,11.041,11.041h264.986    c6.095,0,11.041-4.946,11.041-11.041s-4.946-11.041-11.041-11.041H154.575v-198.74l48.581,36.436    c0.596,0.447,1.264,0.69,1.91,0.999c0.409,0.193,0.773,0.486,1.203,0.629c1.143,0.381,2.324,0.58,3.506,0.58c0,0,0,0,0.006,0l0,0    c0.033,0,0.066-0.011,0.105-0.011c0.834-0.011,1.662-0.116,2.473-0.309c0.033-0.006,0.066-0.006,0.099-0.011l132.499-33.123    c4.913-1.231,8.364-5.642,8.364-10.71V93.852C353.315,88.779,349.865,84.362,344.951,83.137z M198.74,138.011l-36.805-27.603    l36.805-27.603V138.011z M143.534,22.079c3.042,0,5.521,2.473,5.521,5.521s-2.479,5.521-5.521,5.521    c-3.042,0-5.521-2.473-5.521-5.521S140.492,22.079,143.534,22.079z M220.822,74.861l44.164,11.041v49.006l-44.164,11.041V74.861z     M331.233,118.347l-44.164,11.041V91.423l44.164,11.041V118.347z" fill="#549624"/>
	</g>
</g>
<g>
</g>
<g>
</g>
<g>
</g>
<g>
</g>
<g>
</g>
<g>
</g>
<g>
</g>
<g>
</g>
<g>
</g>
<g>
</g>
<g>
</g>
<g>
</g>
<g>
</g>
<g>
</g>
<g>
</g>
</svg>
